# xmcd
#
# Track frame offsets:
# 150
# 10092
# 29611
# 43539
# 70178
# 89102
# 98431
# 120328
# 130777
# 149067
#
# Disc length: 2374 seconds
#
#
# Revision: 0
# Processed by: cddbd v1.5.2PL0 Copyright (c) Steve Scherf et al.
# Submitted via: FreeRIP 2.51 
#
DISCID=8409440a
DTITLE=Roadside Graves - The Roadside Graves
DYEAR=2005
DGENRE=Folk
TTITLE0=Jesus is a Friend of the Family
TTITLE1=Winter in Tennessee
TTITLE2=Jenny Jump
TTITLE3=Song for a Dry State
TTITLE4=The History of Lilies
TTITLE5=Junk on the Highway
TTITLE6=Tulsa Too
TTITLE7=White Girls
TTITLE8=I Shit on the Roof Every Time it Rains
TTITLE9=Honky Tonk
EXTD=
EXTT0=
EXTT1=
EXTT2=
EXTT3=
EXTT4=
EXTT5=
EXTT6=
EXTT7=
EXTT8=
EXTT9=
PLAYORDER=
